<?xml version="1.0" encoding="utf-8"?>
<!-- Generator: Adobe Illustrator 22.0.0, SVG Export Plug-In . SVG Version: 6.00 Build 0)  -->
<svg version="1.1" id="Layer_1" xmlns="http://www.w3.org/2000/svg" xmlns:xlink="http://www.w3.org/1999/xlink" x="0px" y="0px"
	 viewBox="0 0 283.5 141.7" style="enable-background:new 0 0 283.5 141.7;" xml:space="preserve">
<style type="text/css">
	.st0{fill:#FFFFFF;}
	.st1{fill:#D1D3D4;}
</style>
<g>
	<g>
		<path class="st0" d="M67.7,7.3H88l-15.6,99.3H54.3l-8.2-51.8L38,106.6H19.9L4.3,7.3h20.3l6.3,57.8l8.1-57.8h14.4l8,57.8L67.7,7.3z
			"/>
		<path class="st0" d="M144.8,106.6h-20.3V66.9h-10.8v39.7H93.5V7.3h20.3v42.5h10.8V7.3h20.3V106.6z"/>
		<path class="st0" d="M153.1,7.3h19.9v99.3h-19.9V7.3z"/>
		<path class="st0" d="M220.3,7.3l4.9,18.5H212v80.8h-20.3V25.8h-13.3l5.2-18.5H220.3z"/>
		<path class="st0" d="M230.8,7.3h38.6l3.4,18.5h-21.6v23.6h16.4v17.1h-16.4v21.6H272l-3.4,18.5h-37.8V7.3z"/>
	</g>
	<g>
		<path class="st1" d="M208.3,113.3c0,0.1,0,0.1,0,0.2c0,0.1-0.1,0.2-0.1,0.3c-0.1,0.1-0.2,0.1-0.3,0.2c-0.2,0.1-0.4,0.2-0.5,0.4
			c-0.1,0-0.2,0.1-0.3,0.1c-1.1,0.7-2.3,1.4-3.5,2c-0.7,0.4-1.4,0.8-2.3,1c-0.2,0.1-0.5,0.1-0.7,0.1c-0.2,0-0.4-0.1-0.5-0.2
			c-0.4-0.3-0.6-0.7-0.6-1.1c0-0.2,0-0.4-0.1-0.6c-0.1-0.1-0.1-0.1-0.2-0.1c-0.1,0.1-0.2,0.1-0.3,0.2c-0.5,0.3-1,0.6-1.5,0.8
			c-0.9,0.5-1.8,1-2.7,1.2c-0.2,0.1-0.4,0.1-0.6,0.1c-0.3,0-0.5-0.1-0.7-0.3c-0.1-0.1-0.2-0.2-0.2-0.2c-0.2-0.2-0.3-0.5-0.4-0.8
			c0-0.2,0-0.3-0.1-0.5c-0.1-0.6,0.1-1.1,0.5-1.6c0.1-0.1,0.2-0.3,0.3-0.4c0.5-0.6,1.1-1.2,1.8-1.6c0.2-0.2,0.4-0.3,0.6-0.5
			c0.2-0.2,0.4-0.3,0.6-0.4c0.5-0.3,1-0.6,1.5-0.7c0,0,0,0,0.1,0c0.2,0,1.3-0.1,1.4-0.1c0.4,0.1,0.7,0.3,1,0.7
			c0.1,0.1,0.1,0.3,0.2,0.5c0.1,0.1,0.1,0.2,0.2,0.3c0,0.1,0.1,0.1,0.2,0.1c0,0,0.1,0,0.1-0.1c0.3-0.1,0.5,0,0.5,0.3
			c0,0.3,0.1,0.4,0.3,0.6c0,0,0.1,0.1,0.1,0.2c0.1,0.1-0.1,0.2-0.1,0.3c0,0.1,0.1,0.2,0.1,0.4c0,0.1-0.1,0.1-0.1,0.2
			c-0.4,0.3-0.5,0.8-0.7,1.2c0,0,0,0.1,0,0.2c0.1,0,0.1,0,0.2,0c0.4-0.1,0.8-0.3,1.2-0.5c0.6-0.4,1.2-0.7,1.7-1l0.2-0.1
			c0.5-0.4,1.1-0.6,1.6-0.9c0.1-0.1,0.2-0.1,0.3-0.2c0.3-0.1,0.6-0.2,0.9-0.4c0.2-0.1,0.3-0.2,0.5-0.3c0.1,0,0.2,0.1,0.2,0.1
			c0,0.1-0.1,0.2-0.1,0.3c0,0,0.1,0,0.1,0C208.4,112.8,208.4,112.9,208.3,113.3z M193.9,117.1c0.3,0,0.5-0.1,0.8-0.2
			c0.2-0.1,0.3-0.2,0.3-0.4c0.2,0.1,0.4,0.1,0.6-0.1l0.2-0.1c-0.3-0.1-0.5,0-0.8,0.2c-0.4,0-0.7,0.2-1.1,0.3c-0.1,0-0.2,0.1-0.1,0.2
			C193.7,117,193.8,117.1,193.9,117.1z M198.8,115.6C198.8,115.5,198.7,115.5,198.8,115.6c-0.1-0.1-0.2-0.1-0.2,0
			c-0.3,0.2-0.7,0.3-1,0.5c-0.5,0.4-1.1,0.6-1.7,0.9c-0.6,0.3-1.1,0.5-1.8,0.6l-0.2,0.1c0,0,0,0,0,0.1s0,0,0,0.1l0.2,0
			c0.3,0,0.5-0.1,0.8-0.2c0.5-0.2,1-0.4,1.5-0.7l1.4-0.7c0.3-0.2,0.7-0.5,1-0.6C198.7,115.6,198.8,115.6,198.8,115.6
			C198.8,115.6,198.8,115.6,198.8,115.6z M194,115.9C194,115.9,194,115.9,194,115.9C194,115.9,194,115.9,194,115.9
			C194,115.9,194,115.9,194,115.9L194,115.9z M199.6,112.4c-0.1,0-0.3-0.1-0.4,0c-0.8,0.1-1.5,0.4-2.1,0.9c0,0-0.1,0-0.1,0.1
			c-0.2,0-0.3,0.1-0.4,0.2c-0.4,0.3-0.8,0.6-1.2,1c-0.4,0.4-0.8,0.7-1.1,1.1c-0.1,0.1-0.1,0.1-0.1,0.2c0,0,0,0.1,0,0.1
			c0,0,0.1,0,0.1,0c0.1,0,0.1,0,0.2-0.1c0.2-0.1,0.4-0.2,0.7-0.3c0.3-0.1,0.5-0.2,0.8-0.4c0.1-0.1,0.2-0.1,0.3-0.2
			c0.6-0.4,1.3-0.7,1.9-1c0.3-0.2,0.6-0.4,0.9-0.6c0.3-0.2,0.4-0.4,0.6-0.7C199.9,112.6,199.8,112.5,199.6,112.4z M196,116.2
			C196,116.2,196,116.1,196,116.2L196,116.2c-0.1,0-0.1,0-0.1,0C195.9,116.2,195.9,116.2,196,116.2z M196.5,112.4
			c0.3-0.1,0.5-0.2,0.6-0.4c0.1,0,0.2,0,0.3-0.1c0.6-0.2,1.2-0.3,1.7-0.4c0.1,0,0.2,0,0.3-0.1c0,0,0-0.1,0-0.1c0-0.1,0-0.1-0.1-0.2
			c-0.1,0-0.1,0-0.2,0c-0.3,0-0.7,0.1-1.1,0.2c-0.4,0.1-0.8,0.2-1,0.6l0,0.1C196.9,112.1,196.6,112.2,196.5,112.4z M199.4,112.1
			L199.4,112.1c-0.6,0-1.4,0.2-1.8,0.5l-0.1,0.1l0,0c0,0,0,0,0,0c0.1,0,0.2,0,0.3-0.1c0.4-0.2,0.9-0.3,1.4-0.4c0.1,0,0.1,0,0.2,0
			c0.1,0,0.1,0,0.1-0.1C199.5,112.1,199.5,112.1,199.4,112.1z M204.4,115.9c0-0.1-0.1-0.1-0.1-0.1c-0.2,0-0.3,0.1-0.4,0.2
			c-0.2,0.1-0.3,0.2-0.5,0.3c-0.4,0.1-0.7,0.3-1.1,0.5c-0.4,0.2-0.9,0.4-1.4,0.5c-0.1,0-0.2,0-0.3,0.1c0,0,0,0,0,0.1
			c0,0,0,0.1,0,0.1l0.1,0c0.3,0,0.5,0,0.8-0.1c0.6-0.3,1.2-0.5,1.8-0.8l0.4-0.3c0.1-0.1,0.1-0.2,0.1-0.3
			C204,116,204.2,116.1,204.4,115.9C204.3,116,204.4,115.9,204.4,115.9z M200.8,116.4L200.8,116.4c0.2,0,0.4,0,0.5-0.1c0,0,0,0,0,0
			l-0.1-0.1C201.1,116.3,201,116.3,200.8,116.4C200.8,116.4,200.8,116.4,200.8,116.4z M200.8,116.6
			C200.8,116.6,200.8,116.7,200.8,116.6c0.1,0.1,0.2,0.1,0.2,0l0,0v0C201,116.5,200.9,116.5,200.8,116.6z M203.6,115.3
			c0.1,0,0.2-0.1,0.3-0.2C203.8,115.2,203.7,115.2,203.6,115.3z M207.6,113C207.6,113,207.6,113,207.6,113
			C207.5,113,207.5,113,207.6,113L207.6,113L207.6,113z"/>
		<path class="st1" d="M221,114.3c-0.1,0.2-0.3,0.2-0.4,0.2c-1.9,0.7-3.7,1.5-5.5,2.4l-2.5,1.3c-0.3,0.1-0.5,0.3-0.7,0.4
			c-0.2,0.1-0.3,0.3-0.5,0.4c-0.2,0.2-0.4,0.4-0.6,0.6c-0.2,0.2-0.4,0.5-0.6,0.7c-0.1,0.1-0.2,0.3-0.2,0.4c-0.1,0.1-0.2,0.2-0.3,0.3
			c-0.4,0.3-0.4,0.3-0.7,0.8c0.1-0.1,0.3-0.2,0.3-0.3c-0.1,0.2-0.3,0.4-0.4,0.6c-0.1,0-0.1-0.1-0.2,0c-0.1,0.1-0.1,0.1-0.1,0.2
			l0.2-0.1c0,0.1-0.1,0.3-0.2,0.4l0-0.2c-0.1,0.1-0.2,0.1-0.2,0.2v0.1c0,0,0.1,0,0.1,0c0.1,0,0.1-0.1,0.2-0.1
			c-0.1,0.2-0.2,0.3-0.3,0.4c-0.1,0.1-0.2,0.2-0.3,0.3s-0.1,0.2,0,0.3c-0.1,0.1-0.2,0.3-0.3,0.4c-0.4,0.6-0.8,1.2-1.2,1.8l-1.4,1.9
			c-1,1.4-2.1,2.7-3.3,3.9c-0.7,0.7-1.4,1.3-2.1,1.9c-0.3,0.3-0.7,0.5-1,0.7c-0.8,0.5-1.7,0.1-2.1-0.5c-0.1-0.1-0.2-0.3-0.3-0.4
			c-0.3-0.3-0.4-0.8-0.3-1.2c0.1-0.2,0.1-0.5,0.2-0.7c0.2-0.5,0.5-1.1,0.8-1.6c0.1-0.1,0.1-0.3,0.2-0.4c0.2-0.5,0.6-1.1,0.9-1.5
			c0.4-0.5,0.7-1,1.1-1.4c0.4-0.5,0.7-1,1.2-1.4c0.2-0.3,0.6-0.5,0.8-0.8c0.2-0.1,0.3-0.3,0.4-0.4c0-0.1,0.1-0.2,0.2-0.3
			c0.3-0.3,0.7-0.6,1-0.9c0.5-0.4,1-0.8,1.4-1.3c0.2-0.1,0.3-0.3,0.5-0.4c0.3-0.2,0.7-0.4,1-0.7c0.4-0.3,0.7-0.5,1.1-0.8
			c0.6-0.5,1.4-0.9,2-1.4c0,0,0.1-0.1,0.1-0.1c0.6-0.2,1-0.7,1.4-1.3c0.2-0.3,0.4-0.5,0.5-0.8c0-0.1,0.1-0.2,0.2-0.3
			c-0.1-0.1-0.1,0-0.2,0l-0.6,0.3c-1.1,0.6-2.4,1-3.6,1.4c-0.3,0.1-0.7,0.2-1,0.1c-0.5-0.1-0.9-0.4-1.1-0.9c0-0.1,0-0.2-0.1-0.3
			c-0.2-0.6,0-1.2,0.4-1.7c0.4-0.5,0.8-0.9,1.3-1.3c0.6-0.5,1.3-0.9,2-1.1c0.6-0.1,1.2-0.1,1.7,0c0.4,0.1,0.7,0.3,0.9,0.7l0.2,0.3
			c0.2,0.2,0.4,0.2,0.5,0.2c0.1,0,0.2-0.1,0.2-0.1c0.5-0.4,1.1-0.7,1.6-1l0.2-0.1c0.2-0.1,0.5,0.1,0.5,0.3c0,0.2,0.1,0.3,0.2,0.4
			c0.2,0.1,0.3,0.3,0.2,0.4c-0.1,0.1,0,0.2,0.1,0.3c0.1,0.1,0.1,0.3-0.1,0.3c-0.1,0.1-0.2,0.3-0.3,0.4l-0.1,0
			c-0.2,0.2-0.3,0.4-0.4,0.6c0.1-0.1,0.2-0.2,0.3-0.3c0.1,0.1,0,0.2,0,0.2l-0.2,0.3c-0.1,0.1-0.1,0.2,0,0.3c0.1,0.1,0.2,0.1,0.2,0
			l1-0.5c0.1,0,0.2-0.1,0.2-0.1c0.7-0.2,1.3-0.6,2-0.9c0.7-0.4,1.5-0.6,2.3-0.8l0.5-0.1c0.1,0,0.3-0.1,0.3,0c0.1,0,0.1,0.1,0.1,0.1
			c0,0.1,0,0.1-0.1,0.1c0,0-0.1,0-0.1,0.1c-1.4,0.3-2.7,0.9-3.9,1.5c-0.5,0.2-1,0.5-1.6,0.7c-0.2,0.1-0.3,0.2-0.5,0.3
			c0.3,0,0.4-0.1,0.7-0.3c0.2-0.1,0.3-0.2,0.6-0.2c0,0.1,0,0.1,0.1,0.1l0.2-0.1c-0.1,0-0.2,0-0.3,0c0.2-0.2,0.4-0.3,0.7-0.4
			c0.5-0.2,1-0.4,1.5-0.7c0.2-0.1,0.4-0.2,0.6-0.2c-0.1,0.1-0.1,0.1-0.1,0.2c0.3,0,0.5-0.1,0.7-0.2l1.4-0.5c0.1,0,0.3-0.1,0.4-0.1
			c0.1,0,0.2,0,0.2,0.1s0,0.2-0.1,0.3c-0.1,0.1-0.3,0.1-0.3,0.2c-0.9,0.4-1.9,0.7-2.8,1.1c-1.6,0.7-3.2,1.5-4.7,2.3
			c-0.3,0.2-0.6,0.3-0.8,0.5c0,0,0,0.1,0,0.1c0,0,0.1,0,0.1,0c0,0,0.1,0,0.1,0c1-0.5,1.9-1,2.9-1.5c0.5-0.3,1-0.5,1.5-0.7
			c1.2-0.6,2.5-1.1,3.8-1.6C220.7,114.3,220.9,114.2,221,114.3z M197.5,130.3L197.5,130.3L197.5,130.3L197.5,130.3z M197.7,132.5
			C197.6,132.4,197.6,132.4,197.7,132.5L197.7,132.5L197.7,132.5L197.7,132.5z M197.9,129.8c-0.1,0.1-0.2,0.1-0.1,0.2
			C197.8,129.9,197.9,129.8,197.9,129.8z M206.8,122C206.8,122,206.8,122,206.8,122l-0.2,0.1c-0.7,0.5-1.4,1.1-2.1,1.6
			c-1.7,1.4-3.1,3-4.4,4.7c-0.4,0.5-0.7,1.1-1.1,1.5c-0.5,0.7-0.8,1.5-1.1,2.3c0,0.1-0.1,0.1-0.1,0.2c0,0.2,0,0.2,0.2,0.2
			c0.1,0,0.3-0.1,0.3-0.1c0.4-0.4,0.9-0.7,1.3-1.1c0.2-0.2,0.4-0.4,0.6-0.5c0.2-0.1,0.4-0.3,0.5-0.5c0.1-0.2,0.2-0.3,0.4-0.4
			c0.2-0.1,0.3-0.3,0.4-0.4c0.3-0.3,0.5-0.7,0.7-1c0.7-0.8,1.2-1.6,1.8-2.4c0,0,0.1-0.1,0.1-0.2c0.2-0.3,0.4-0.6,0.6-0.9
			c0.3-0.4,0.5-0.7,0.8-1.1c0.2-0.3,0.3-0.5,0.5-0.8c0.2-0.3,0.4-0.5,0.5-0.9C206.7,122.2,206.8,122.1,206.8,122L206.8,122z
			 M198.3,133.3l0.2-0.1c0.4-0.3,0.8-0.6,1.2-0.9c0.5-0.5,1-0.9,1.4-1.4l0.1-0.1c0.1-0.1,0.3-0.2,0.3-0.4l0.1-0.1
			c0,0,0.1-0.1,0.1-0.1l0.1-0.1c0.2-0.1,0.2-0.1,0.1-0.3c0.1-0.1,0.2-0.2,0.3-0.3l0.1,0c0,0,0-0.1,0.1-0.1l-0.1,0
			c0-0.2,0.1-0.3,0.2-0.4c-0.3,0.2-0.6,0.5-0.8,0.8c-1,1.1-2.2,2.1-3.4,3l-0.3,0.2c0,0,0,0.1,0,0.1c0,0,0.1,0,0.1,0L198.3,133.3
			C198.3,133.3,198.3,133.3,198.3,133.3z M197.9,129.6c0.2-0.2,0.3-0.3,0.3-0.5c0.3-0.3,0.5-0.5,0.6-0.9c0.1-0.1,0.2-0.2,0.2-0.4
			c-0.1,0.1-0.2,0.2-0.2,0.4c-0.3,0.2-0.5,0.5-0.6,0.9C198.1,129.2,198,129.4,197.9,129.6z M205.1,127.4c-0.3,0.1-0.4,0.3-0.6,0.5
			c-0.1,0.2-0.3,0.4-0.4,0.5l-0.9,1.1c-0.3,0.5-0.8,1-1.2,1.4c-1.1,1.1-2.1,2.1-3.4,2.9l-0.2,0.2c0,0,0,0,0,0.1c0,0,0.1,0,0.1,0
			l0.4-0.2c0.4-0.3,0.8-0.5,1.1-0.8c0.6-0.5,1.2-1.1,1.8-1.6c0.8-0.8,1.6-1.7,2.3-2.6c0.2-0.4,0.5-0.7,0.7-1
			C205,127.7,205,127.5,205.1,127.4z M198.6,130.4c0.1-0.1,0.2-0.3,0.2-0.4C198.6,130.1,198.6,130.2,198.6,130.4z M198.9,129.6
			l-0.1,0.2C198.9,129.8,198.9,129.7,198.9,129.6L198.9,129.6C199,129.6,199,129.6,198.9,129.6z M199.3,127.7
			c0.1-0.1,0.1-0.2,0.2-0.3c0.3-0.3,0.6-0.6,0.8-1c0.3-0.2,0.5-0.4,0.6-0.7c0,0,0-0.1,0.1-0.1c0.1-0.1,0.2-0.2,0.3-0.3
			c0.5-0.5,1-1.1,1.5-1.5c0.2-0.2,0.4-0.3,0.6-0.5c0.2-0.1,0.3-0.3,0.4-0.4l-0.2,0c-0.1,0.1-0.2,0.2-0.3,0.2
			c-0.1,0.1-0.2,0.2-0.3,0.3l-0.1,0.1c0,0,0.1,0,0.1,0l-0.1,0.1c-0.3,0.3-0.6,0.6-1,0.9l-0.1,0c-0.2,0.2-0.3,0.4-0.5,0.6l-0.1,0.1
			c-0.1,0.2-0.3,0.3-0.3,0.5c0,0-0.1,0.1-0.1,0.1c-0.3,0.2-0.5,0.4-0.6,0.7c-0.3,0.3-0.6,0.6-0.8,1
			C199.3,127.5,199.3,127.6,199.3,127.7z M200.1,128c-0.1,0.1-0.2,0.2-0.1,0.2C200.1,128.2,200.1,128.1,200.1,128
			c0.1,0,0.1-0.1,0.1-0.1L200.1,128z M201.4,126.2c-0.1,0.1-0.3,0.2-0.3,0.4c0,0,0,0.1,0,0.1c0,0,0.1,0,0.1,0
			c0.2-0.3,0.4-0.5,0.6-0.7C201.7,126,201.5,126.1,201.4,126.2z M203.9,123.7c-0.5,0.5-1,1-1.5,1.4c-0.1,0.1-0.2,0.2-0.2,0.3
			c0.1-0.1,0.2-0.1,0.3-0.2c0.2-0.2,0.4-0.4,0.7-0.6c0.3-0.2,0.5-0.4,0.8-0.6c0.3-0.2,0.5-0.5,0.8-0.7c0.4-0.3,0.8-0.6,1.1-1
			c-0.1,0-0.2,0.1-0.3,0.1C205,122.8,204.4,123.3,203.9,123.7z M202.9,128.9c0.3-0.4,0.7-0.7,0.9-1.2c0.1-0.1,0.2-0.2,0.2-0.3
			c-0.1,0.1-0.2,0.2-0.2,0.3c-0.3,0.3-0.5,0.6-0.8,0.8c0,0,0,0.1,0,0.1l-0.1,0.1c-0.1,0.1-0.3,0.3-0.3,0.4
			C202.7,129.1,202.8,129,202.9,128.9z M204.3,127c0.2-0.2,0.4-0.4,0.5-0.7C204.6,126.4,204.4,126.7,204.3,127
			c-0.1,0.1-0.1,0.2-0.2,0.3C204.2,127.1,204.3,127.1,204.3,127z M204.2,122.6c0.2-0.1,0.3-0.2,0.4-0.3c0,0,0-0.1,0-0.1l-0.1,0
			C204.4,122.3,204.3,122.4,204.2,122.6z M205.2,125.8c-0.1,0.1-0.1,0.1-0.2,0.2C205.1,125.9,205.1,125.9,205.2,125.8z M206.7,123.6
			c-0.2,0.1-0.2,0.2-0.3,0.4c-0.3,0.4-0.6,1-1,1.4c-0.1,0.1-0.2,0.2-0.2,0.4c0.2-0.1,0.2-0.2,0.3-0.3l1.1-1.6
			C206.7,123.8,206.7,123.7,206.7,123.6z M206,126.1L206,126.1c-0.2,0.1-0.2,0.2-0.2,0.3l0.2-0.2C206,126.2,206,126.2,206,126.1
			C206,126.1,206,126.1,206,126.1z M205.9,122.2L205.9,122.2C206,122.2,206,122.2,205.9,122.2C206,122.2,205.9,122.2,205.9,122.2z
			 M206.3,116.4l0.9-0.2c-0.1,0.1-0.2,0.1-0.3,0.2l-0.1,0c0,0,0,0-0.1,0h0.1c0,0,0.1,0,0.1,0c0.2,0,0.4,0,0.6-0.1
			c0.9-0.3,1.9-0.7,2.7-1.2c0.1-0.1,0.3-0.1,0.3-0.3l-0.5,0.2c0.1-0.1,0.2-0.2,0.2-0.3c0.2,0,0.4-0.2,0.6-0.4
			c-0.2,0.1-0.4,0.2-0.6,0.4c-0.2,0-0.3,0.1-0.5,0.2c-1.1,0.5-2.2,0.9-3.3,1.2l-0.2,0.1C206.3,116.2,206.3,116.3,206.3,116.4
			L206.3,116.4C206.2,116.3,206.3,116.4,206.3,116.4z M211.6,115.1c-0.2-0.1-0.2,0.1-0.3,0.1c-1.5,0.8-3,1.5-4.6,1.8
			c-0.1,0-0.1,0-0.2,0.1c0,0-0.1,0.1,0,0.1c0,0,0,0,0.1,0.1l0.2,0c0.2,0,0.4-0.1,0.7-0.1c1-0.3,1.9-0.6,2.8-1.1
			c0.4-0.2,0.9-0.4,1.2-0.7C211.5,115.2,211.6,115.2,211.6,115.1z M206.5,125.4C206.5,125.3,206.5,125.3,206.5,125.4
			C206.5,125.4,206.5,125.4,206.5,125.4C206.5,125.4,206.5,125.4,206.5,125.4L206.5,125.4z M206.7,115.2c-0.1,0.1-0.1,0.2,0,0.3
			c0,0.1,0.1,0.1,0.2,0.1c0.3,0,0.5-0.1,0.7-0.2c0.3-0.1,0.5-0.2,0.8-0.3c0.7-0.2,1.3-0.6,2-0.9c0.1,0,0.1-0.1,0.2-0.2
			c0.1-0.1,0.1-0.3-0.1-0.3c-0.1,0-0.1,0-0.2,0c-0.2,0-0.4,0-0.8,0l-0.2,0c-0.5,0-0.9,0.1-1.3,0.4
			C207.6,114.3,207.1,114.7,206.7,115.2C206.7,115.2,206.7,115.2,206.7,115.2z M207.6,121c-0.3,0.2-0.7,0.4-0.9,0.7
			C207,121.5,207.4,121.3,207.6,121z M207.5,119.9c0,0-0.1,0-0.2,0c-0.2,0.1-0.4,0.3-0.6,0.5c0.2-0.1,0.3-0.1,0.4-0.2
			c0.1,0,0.2-0.1,0.3-0.1C207.6,120,207.6,119.9,207.5,119.9z M206.9,115.2L206.9,115.2L206.9,115.2
			C206.9,115.1,206.9,115.2,206.9,115.2z M207.1,115C207,115.1,207,115.1,207.1,115L207.1,115z M207.1,123
			C207.1,123,207.1,123,207.1,123C207.1,123,207.1,123,207.1,123L207.1,123z M207.6,113C207.6,113,207.6,113,207.6,113
			c0.1,0,0.2,0,0.3,0l0,0.1c0.3,0,0.6-0.2,0.8-0.3c0.1,0,0.1,0,0.1,0c0-0.2,0.2-0.2,0.3-0.2c0.1,0,0.3-0.1,0.4-0.1
			c-0.2-0.1-0.3-0.1-0.5-0.1C208.5,112.5,208,112.7,207.6,113C207.6,112.9,207.5,112.9,207.6,113z M207.9,116
			c-0.1,0-0.2,0.1-0.3,0.1l0,0L207.9,116z M207.6,114c0.1,0,0.2,0,0.2-0.1c0.4-0.2,0.9-0.4,1.4-0.5c0.1,0,0.1,0,0.1-0.1
			c0,0-0.1,0-0.1,0c-0.5,0-1,0.2-1.5,0.5C207.8,113.8,207.7,113.9,207.6,114z M208,119.5c-0.1,0-0.2,0.1-0.2,0.2
			C207.9,119.6,208,119.6,208,119.5z M208,112.9c-0.1,0-0.1,0.1-0.2,0.1C207.9,113,208,112.9,208,112.9L208,112.9z M208.1,123.4
			L208.1,123.4C208.1,123.5,208.1,123.5,208.1,123.4L208.1,123.4z M209,118.9c-0.3,0.1-0.7,0.3-0.9,0.6
			C208.5,119.3,208.8,119.1,209,118.9z M208.6,115.7l-0.3,0.1v0C208.4,115.8,208.5,115.8,208.6,115.7z M209.2,115.5
			c0,0-0.1,0-0.2,0.1C209.1,115.5,209.1,115.5,209.2,115.5L209.2,115.5C209.2,115.4,209.2,115.5,209.2,115.5z M209.6,115.3
			c-0.1,0.1-0.3,0.1-0.4,0.2C209.3,115.4,209.5,115.3,209.6,115.3z M209.8,115.2c0,0,0.1-0.1,0.2-0.1L209.8,115.2z M209.9,115.1
			c0.1,0,0.1-0.1,0.2-0.1C210.1,115,210,115.1,209.9,115.1z M212.5,113.4l0.2,0c0-0.1,0.1-0.1,0.1-0.2
			C212.6,113.3,212.6,113.3,212.5,113.4z M212.9,113.1c-0.1,0.1-0.1,0.1-0.2,0.1C212.8,113.2,212.9,113.2,212.9,113.1
			C213,113.1,213,113.1,212.9,113.1C213,113,212.9,113.1,212.9,113.1z M214.4,116.1c-0.3,0.1-0.5,0.2-0.7,0.4
			C214.2,116.4,214.2,116.4,214.4,116.1z M213.9,116.1c0.1,0,0.2-0.1,0.3-0.1C214.1,116,214,116.1,213.9,116.1z M218.4,114.2
			L218.4,114.2L218.4,114.2c0.1-0.1,0.2-0.1,0.3-0.1L218.4,114.2z M219.1,113.9c0.1,0,0.2-0.1,0.3-0.1L219.1,113.9z M219.7,113.8
			c-0.1,0-0.2,0.1-0.3,0.1C219.5,113.8,219.6,113.8,219.7,113.8z"/>
		<path class="st1" d="M231.7,114.7c-0.1,0-0.1,0.1-0.2,0.1c-0.2,0-0.3,0.1-0.4,0.2c-0.9,0.5-1.9,0.9-2.8,1.3
			c-1.2,0.5-2.3,0.9-3.6,1.2c-0.8,0.1-1.5,0.3-2.3,0.2c-0.7,0-1.2-0.2-1.8-0.7c-0.4-0.4-0.6-0.8-0.7-1.4c0-0.3,0-0.7,0-1.1
			c0-0.8,0.3-1.5,0.7-2.1c0.4-0.5,0.8-0.9,1.3-1.3s0.9-0.5,1.5-0.5c0.4,0,0.7,0.2,0.9,0.5c0.3,0.5,0.5,1,0.6,1.6
			c0,0.3-0.1,0.7-0.3,0.9c-0.2,0.2-0.4,0.4-0.5,0.7c-0.1,0.2-0.2,0.3-0.3,0.3c-0.6,0.4-1.3,0.6-1.9,0.8c-0.1,0-0.2,0-0.3,0
			c0,0-0.1,0-0.1-0.1c0,0,0.1-0.1,0.1-0.1c0.1,0,0.1,0,0.2,0c0.4-0.1,0.9-0.3,1.3-0.5l0.1-0.1v-0.1c0,0,0,0,0,0
			c-0.1,0-0.2,0-0.3,0.1c-0.4,0.2-0.9,0.3-1.4,0.5c-0.1,0-0.2,0-0.2,0.1c-0.1,0.1-0.1,0.2,0,0.3c0.1,0.1,0.2,0.1,0.3,0.1
			c0.4,0.1,0.8,0.1,1.2,0.1c0.5,0,1.1-0.1,1.6-0.2c0.5-0.1,1-0.2,1.5-0.4l0.1,0c0.9-0.2,1.7-0.6,2.6-1l1.5-0.6
			c0.3-0.1,0.6-0.2,0.9-0.4l0.3-0.1c0.2-0.1,0.3,0,0.4,0.2c0,0.2,0.1,0.3,0.2,0.4c0.1,0.1,0.2,0.3,0,0.4c-0.1,0.1-0.1,0.2,0,0.2
			C231.7,114.6,231.7,114.6,231.7,114.7z M221.4,114.7c0,0.1,0.1,0,0.2,0c0.2-0.1,0.3-0.1,0.4-0.2c0,0,0,0,0,0c0,0,0-0.1,0-0.1
			l0.1-0.1c0,0,0-0.1,0-0.1c0,0,0-0.1-0.1,0c-0.2,0-0.3,0.1-0.5,0.2c-0.1,0-0.1,0-0.1,0.1C221.4,114.5,221.3,114.6,221.4,114.7z
			 M222,114.4L222,114.4C222,114.4,222,114.4,222,114.4z M222,113.4c0,0.2,0.1,0.3,0.2,0.2c0.3-0.1,0.5-0.2,0.7-0.3
			c0.3-0.2,0.4-0.4,0.6-0.6c0-0.1,0-0.2,0-0.2c-0.1-0.1-0.1-0.1-0.2,0c-0.3,0-0.5,0.2-0.7,0.3c-0.2,0.1-0.3,0.2-0.4,0.3
			C222.1,113.1,222,113.2,222,113.4z M222.1,111.8c0.2-0.1,0.4-0.2,0.6-0.3c0.2-0.1,0.4-0.1,0.6-0.1c0.1,0,0.1,0,0.2,0l0.1-0.1
			c0-0.1-0.1-0.1-0.1-0.1c-0.1,0,0-0.1,0-0.1c0,0,0.1,0,0.1-0.1c0,0,0,0-0.1-0.1c-0.2,0-0.4,0-0.6,0.1c0,0-0.1,0.1-0.1,0.1
			c0.1,0.1,0.1,0.1,0,0.2C222.5,111.5,222.3,111.5,222.1,111.8z M222.2,116.4c0.5,0.2,1,0.1,1.5,0.1c-0.3,0-0.5,0.1-0.7,0.1
			c0,0.1,0.1,0.1,0.1,0.1c0.9,0,1.7-0.2,2.5-0.5c0,0,0.1,0,0.1-0.1c0,0,0,0,0-0.1c0,0,0,0-0.1,0l0,0c0.1-0.1,0.3-0.1,0.4-0.2
			c0.1,0,0.1,0,0.1-0.1c-0.6,0.2-1.2,0.4-1.9,0.5C223.5,116.3,222.9,116.4,222.2,116.4z M229.2,115.6c-0.1-0.1-0.1-0.1-0.2,0
			c-0.3,0.1-0.5,0.2-0.8,0.3c-0.7,0.3-1.5,0.6-2.2,0.8c-1,0.3-2.1,0.5-3.2,0.5c-0.1,0-0.3,0-0.4,0c0,0-0.1,0-0.1,0.1c0,0,0,0,0.1,0
			c0.5,0.1,1,0.1,1.5,0c0.7-0.1,1.5-0.3,2.1-0.5c0.9-0.3,1.7-0.6,2.5-1C228.8,115.8,229,115.8,229.2,115.6z M223.6,112
			c-0.2-0.1-0.4,0-0.6,0.1c-0.2,0.1-0.3,0.2-0.4,0.4c0.3-0.2,0.6-0.3,0.9-0.4c0,0,0.1,0,0.1,0S223.7,112.1,223.6,112
			C223.7,112,223.6,112,223.6,112z M223.1,113.7C223.1,113.7,223.1,113.7,223.1,113.7c-0.1,0-0.2,0.1-0.3,0.2c0,0-0.1,0-0.1,0
			c-0.1,0-0.1,0,0,0c0,0,0,0,0,0l0.1-0.1C223,113.9,223.1,113.9,223.1,113.7L223.1,113.7z M223.6,114.4L223.6,114.4L223.6,114.4
			L223.6,114.4z M224.3,116.4L224.3,116.4L224.3,116.4L224.3,116.4L224.3,116.4z M225.2,116.2l0.4-0.1c-0.3,0.2-0.5,0.2-0.9,0.3
			C224.9,116.2,225.1,116.2,225.2,116.2z M231.7,114.8c-0.1,0-0.1,0-0.2,0C231.6,114.8,231.7,114.8,231.7,114.8z"/>
		<path class="st1" d="M247.7,114.9c-0.1,0.1-0.3,0.1-0.4,0.2l-1.7,0.5c-1.2,0.3-2.3,0.9-3.4,1.3c-0.5,0.2-1,0.5-1.6,0.7
			c-0.3,0.1-0.7,0.2-1,0.3c-0.1,0-0.2,0-0.3,0.1c0,0-0.1,0-0.1,0.1c0,0.1,0.1,0.1,0.1,0.1c0.2,0,0.3,0,0.5-0.1
			c0.3-0.1,0.7-0.2,1-0.3l2.4-1c0.8-0.4,1.6-0.7,2.5-0.9c0.5-0.2,1.1-0.3,1.6-0.5c0.1,0,0.2-0.1,0.3-0.1c0,0,0,0,0,0v0
			c0,0-0.1,0.1-0.1,0.1c-0.3,0.1-0.7,0.3-1,0.4c-0.9,0.3-1.7,0.5-2.5,0.9l-2.1,0.9c-0.7,0.3-1.5,0.6-2.2,0.8c-0.3,0.1-0.5,0.1-0.8,0
			c-0.3-0.2-0.6-0.4-0.7-0.8c-0.1-0.3-0.1-0.5-0.1-0.7c-0.1-0.4,0-0.7,0.2-1l0.7-1c0.2-0.2,0.4-0.4,0.6-0.7c0.2-0.2,0.2-0.4,0.3-0.6
			c-0.1,0-0.2,0-0.3,0c-0.6,0.2-1.2,0.5-1.8,0.7c-1.3,0.6-2.5,1.3-3.8,1.9c-0.8,0.4-1.5,0.8-2.4,1l-0.3,0.1c-0.3,0-0.5,0-0.7-0.2
			c-0.4-0.2-0.6-0.5-0.6-1c0-0.1,0-0.1,0-0.2c-0.1-0.5,0-1,0.2-1.4c0.5-0.8,1.1-1.6,1.7-2.3c0.1-0.2,0.2-0.3,0.4-0.4
			c0.1-0.1,0.2-0.1,0.3,0.1l0.2,0.3c0.1,0.2,0.1,0.4,0,0.7l-0.4,0.7c-0.1,0.2-0.2,0.3-0.2,0.5c-0.3,0.3-0.5,0.6-0.7,0.9
			c0,0.1,0,0.1,0,0.2c0.2,0.1,0.4,0.2,0.7,0.1c0.3-0.2,0.6-0.3,0.9-0.4c0.1,0,0.1,0,0.1-0.1c0.5-0.3,1-0.5,1.5-0.8
			c0.6-0.3,1.2-0.6,1.7-0.9c0.5-0.3,1-0.5,1.6-0.7c0.4-0.2,0.8-0.3,1.2-0.5c0.2-0.1,0.4-0.1,0.6-0.2l0.7-0.2c0.5-0.1,0.9,0,1.1,0.5
			c0.1,0.2,0.2,0.3,0.2,0.4c0.2,0.4,0.2,0.8-0.1,1.2c-0.4,0.5-0.8,0.9-1.1,1.4c-0.1,0.1-0.2,0.3-0.3,0.4c-0.1,0.1,0,0.2,0.1,0.2
			c-0.1,0.2-0.2,0.4-0.2,0.5c0,0.1,0.1,0.2,0.2,0.2l0.1,0c0.5-0.3,1-0.4,1.5-0.6c0.5-0.2,1-0.4,1.5-0.7c0.4-0.2,0.9-0.4,1.4-0.5
			c0.6-0.2,1.2-0.4,1.8-0.5c0.2-0.1,0.3-0.1,0.5-0.1c0.1,0,0.2,0,0.3,0.1c0.1,0.1,0.1,0.2,0,0.2c0,0.1,0,0.2,0.1,0.3l0.1,0.1
			C248,114.5,247.9,114.8,247.7,114.9z M239.9,113.1c0.1-0.1,0.3-0.1,0.3-0.2l0-0.1h0l-0.2,0c-0.9,0.4-1.7,0.7-2.6,1.1
			c-1.2,0.6-2.4,1.2-3.6,1.8c-0.8,0.4-1.5,0.8-2.4,1c-0.1,0-0.2,0-0.2,0.1c0,0-0.1,0.1,0,0.1c0,0,0,0,0.1,0c0.3,0,0.5-0.1,0.8-0.2
			c0.6-0.3,1.2-0.5,1.8-0.8c1.6-0.9,3.3-1.7,5-2.4L239.9,113.1z M231.3,116c0,0.1,0.1,0.1,0.1,0.1c0.3-0.1,0.7-0.2,1-0.4l-0.3,0
			c0.1-0.1,0.3-0.2,0.4-0.2v0c0,0,0,0,0,0.1c0,0,0,0,0,0c0,0,0,0,0,0c0.3-0.2,0.6-0.3,0.9-0.5c0,0.1,0,0.1-0.1,0.2
			c0.1,0,0.2-0.1,0.3-0.2c0.4-0.1,0.9-0.3,1-0.8c-0.4,0.1-0.7,0.3-1,0.5c-0.7,0.4-1.3,0.7-2,0.9l-0.3,0.1
			C231.3,115.8,231.3,115.9,231.3,116z M233.7,115C233.7,115,233.7,115.1,233.7,115l-0.3,0.1L233.7,115z M234.9,114.2l0.4-0.1
			c0.3,0.1,0.5-0.1,0.7-0.2c0.1-0.1,0.1-0.2,0-0.2C235.6,113.7,235.2,113.9,234.9,114.2z M236.1,113.6c0.2,0,0.3-0.1,0.5-0.3
			C236.3,113.4,236.2,113.5,236.1,113.6z M236.9,113.2l0.3,0.1c0.2,0,0.4-0.1,0.6-0.3c0.1-0.1,0.3-0.2,0.5-0.3l0,0.1
			c0.3-0.1,0.7-0.2,1-0.4c0.1,0,0.1,0,0.2,0c0.5-0.2,0.9-0.3,1.4-0.4c0,0,0,0,0.1,0c0.1-0.1,0.1-0.2,0.2-0.3
			c-0.1-0.1-0.2-0.1-0.3-0.1c-0.4,0-0.7,0.2-1.1,0.3c-0.7,0.3-1.5,0.6-2.2,0.9C237.3,113,237.1,113,236.9,113.2z M239.3,112.3
			l-0.2,0.2c0,0-0.1-0.1,0-0.1C239.2,112.3,239.3,112.3,239.3,112.3z M239.2,112.5L239.2,112.5L239.2,112.5z M239.8,112.1
			c-0.1,0.1-0.3,0.2-0.4,0.2C239.5,112.2,239.6,112.1,239.8,112.1z M247,114.2c0,0-0.1,0-0.2,0c-1.1,0.3-2.1,0.6-3.2,1
			c-0.2,0.1-0.3,0.2-0.4,0.3c-0.3,0-0.6,0.2-0.9,0.4c-0.4,0.1-0.8,0.2-1.1,0.4c-0.4,0.2-0.9,0.4-1.3,0.5l-0.3,0.1
			c-0.1,0-0.1,0.1-0.1,0.1c0,0,0.1,0,0.1,0c0,0-0.1,0.1-0.2,0.1c0,0-0.1,0-0.1,0.1c0,0,0.1,0,0.1,0c0.3-0.1,0.5-0.1,0.8-0.3
			c0.2,0,0.3-0.1,0.4-0.2c-0.2,0-0.3,0.1-0.4,0.2l-0.6,0.1c0.5-0.2,1-0.4,1.5-0.6c0.2-0.1,0.4-0.2,0.6-0.2l0,0
			c-0.1,0.1-0.1,0.1-0.2,0.2c-0.2,0-0.3,0.1-0.4,0.2c0.2,0,0.3-0.1,0.4-0.2c0.2,0,0.3-0.1,0.4-0.2c-0.1,0-0.2,0-0.3,0l0.5-0.4
			c0.2,0,0.3-0.1,0.5-0.1c-0.1,0-0.1,0.1-0.2,0.2c0,0-0.1,0-0.1,0l0,0c0,0,0,0,0.1,0c0,0,0.1,0,0.1-0.1c0.3,0,0.5-0.1,0.7-0.3
			c0.2,0,0.3-0.1,0.4-0.2c0.2,0,0.3,0,0.4-0.1c0.3-0.1,0.6-0.2,0.9-0.3l1.4-0.4c0.2,0,0.3-0.1,0.4-0.2c0.1-0.1,0-0.1-0.1-0.1h0
			C247,114.4,247.1,114.3,247,114.2C247.1,114.3,247.1,114.2,247,114.2z M244,115.3l-0.2,0.2c-0.2,0-0.3,0.1-0.4,0.2l-0.5,0.1
			c0.1-0.1,0.3-0.2,0.4-0.3C243.5,115.5,243.7,115.3,244,115.3z M244.5,115.1c0.1,0,0.2-0.1,0.2-0.1
			C244.7,115.1,244.6,115.1,244.5,115.1z M244.8,115c0.1,0,0.2,0,0.3-0.1L244.8,115L244.8,115L244.8,115z M245.1,115l0.3-0.1
			C245.3,114.9,245.2,114.9,245.1,115z M245.4,114.9c0.1,0,0.2-0.1,0.3-0.1L245.4,114.9L245.4,114.9z M245.7,114.8
			c0.1-0.1,0.2-0.1,0.3-0.1C245.9,114.7,245.8,114.8,245.7,114.8z"/>
		<path class="st1" d="M261.9,114.1c0.1,0.3-0.2,0.3-0.3,0.4c-0.6,0.3-1.3,0.5-1.9,0.7c-1.9,0.7-3.8,1.2-5.7,1.6
			c-1,0.3-2.1,0.4-3.2,0.5l-0.6,0c-0.4-0.1-0.8-0.1-1.1,0c-0.3,0-0.7,0-1-0.1c-0.6-0.2-1.1-0.7-1.2-1.3c0-0.4,0-0.7,0-1.1
			c0-0.2,0.1-0.4,0.2-0.6c0.2-0.4,0.3-0.7,0.6-1c0.3-0.4,0.7-0.8,1-1.2c0.4-0.4,0.8-0.7,1.3-0.9c0.1,0,0.2-0.1,0.2-0.1
			c0.3-0.3,0.8-0.4,1.1-0.4l0.7,0c0.3,0,0.6,0.1,0.9,0.3c0.2,0.1,0.3,0.2,0.4,0.4c0.2,0.3,0.3,0.7,0.3,1.1c0,0.3,0,0.5-0.2,0.7
			c-0.1,0.2-0.3,0.4-0.4,0.6c-0.1,0.1-0.2,0.2-0.3,0.3c-0.2,0.1-0.4,0-0.5-0.2c0-0.3,0-0.5,0.1-0.7l0.2-0.3c0.1-0.2,0.1-0.3-0.1-0.4
			c-0.2-0.1-0.4-0.1-0.7-0.1c-0.4,0.1-0.7,0.2-1.1,0.4c-0.3,0.2-0.5,0.3-0.7,0.5c-0.6,0.6-1.2,1.2-1.6,1.9c-0.2,0.3-0.2,0.5,0.2,0.6
			c0.5,0.1,1,0.1,1.7,0.1c0.6,0,1.3,0,2-0.2c0.5-0.1,1.1-0.2,1.6-0.4c0.6-0.1,1.2-0.3,1.8-0.4c0.8-0.2,1.6-0.4,2.4-0.6
			c0.2-0.1,0.4-0.1,0.7-0.3c0.1,0,0.2-0.1,0.2-0.1l2.1-0.6c0.2,0,0.3-0.1,0.4-0.1c0.2,0,0.4,0.1,0.3,0.3c0,0.2,0,0.3,0.1,0.4
			C262.1,113.7,262.1,113.9,261.9,114.1C262,114,261.9,114.1,261.9,114.1z M248.4,116.1c0.9,0.1,1.8,0.1,2.8,0.1l0.4,0
			c-0.1,0-0.1,0-0.2,0c-0.3,0-0.6,0-0.9,0c-0.1,0-0.1,0-0.2,0c0,0,0,0,0,0v0c0.1,0.1,0.2,0.1,0.3,0.1c0.8,0,1.6-0.1,2.5-0.3
			c0.2,0,0.3-0.1,0.5-0.2c0.1,0,0.3,0,0.3-0.1c-0.1,0-0.2,0-0.3,0.1l-0.5,0c0.4-0.2,0.9-0.2,1.3-0.4c0.1,0,0.2,0,0.3-0.1
			c-0.2,0-0.3,0-0.5,0.1c-1.6,0.4-3.2,0.6-4.9,0.5C248.9,116,248.7,116,248.4,116.1C248.4,116,248.3,116,248.4,116.1
			C248.3,116.1,248.4,116.1,248.4,116.1z M258.4,115.3C258.4,115.3,258.3,115.3,258.4,115.3c-0.2,0-0.3,0-0.3,0
			c-1.1,0.3-2.1,0.6-3.3,0.9c-1.5,0.4-3.1,0.7-4.6,0.7c-0.3,0-0.7,0-1,0c-0.2,0-0.4,0-0.6,0c0,0-0.1,0-0.1,0c0,0,0,0.1,0.1,0.1
			l0.3,0.1c1,0.1,2,0.1,2.9,0c0.9-0.1,1.8-0.3,2.7-0.5c1.1-0.3,2.2-0.6,3.3-0.9L258.4,115.3C258.4,115.4,258.4,115.4,258.4,115.3z
			 M248.9,114C248.9,114,248.9,114,248.9,114C248.9,114.1,248.9,114,248.9,114L248.9,114C248.9,114,248.9,114,248.9,114z
			 M249.8,113.1C249.8,113.1,249.8,113.1,249.8,113.1C249.9,113.1,249.9,113,249.8,113.1C249.9,113,249.9,113,249.8,113.1
			C249.8,113.1,249.8,113.1,249.8,113.1z M250.1,111.7C250.1,111.7,250.1,111.7,250.1,111.7c0.1,0,0.2,0,0.3-0.1
			c0.4-0.2,0.8-0.3,1.3-0.4c0.3,0,0.5,0,0.8,0l0.2,0c0.1,0,0.1-0.1,0.1-0.1c0,0,0-0.1-0.1-0.1s-0.1-0.1-0.1-0.1
			c-0.2,0-0.3-0.1-0.4-0.1c-0.4,0-0.7,0.1-1,0.1c-0.1,0-0.2,0.1-0.2,0.1c-0.2,0.2-0.3,0.2-0.5,0.3
			C250.2,111.5,250.1,111.6,250.1,111.7L250.1,111.7z M252.6,111.9c0,0-0.1-0.1-0.1-0.1c-0.4-0.1-0.9,0-1.3,0.1
			c-0.1,0-0.2,0.1-0.3,0.3c0.3-0.1,0.4-0.1,0.6-0.1c0.3-0.1,0.7-0.1,1-0.1C252.5,112,252.6,112,252.6,111.9z M252.2,116.1
			L252.2,116.1C252.2,116.1,252.2,116.1,252.2,116.1L252.2,116.1C252.2,116.1,252.2,116.1,252.2,116.1z M252.9,116c0,0,0.1,0,0.1,0
			C253,116,252.9,116,252.9,116L252.9,116C252.8,116,252.8,116,252.9,116z M255,115.3c0.1,0,0.3,0,0.4-0.1
			C255.3,115.2,255.1,115.2,255,115.3z M260.1,114.8c-0.2,0-0.4,0.1-0.6,0.1c0,0-0.1,0-0.1,0.1c0.1,0.1,0.2,0,0.3,0
			C259.9,114.9,260,114.9,260.1,114.8z M260.3,113.9C260.3,113.8,260.3,113.8,260.3,113.9L260.3,113.9
			C260.2,113.9,260.2,113.9,260.3,113.9L260.3,113.9z"/>
		<path class="st1" d="M279,113.2c-0.1,0.1-0.2,0.1-0.2,0.1c-0.1,0-0.3,0.1-0.4,0.1c-0.1,0-0.3,0-0.3,0.2c0.1,0.1,0.2,0,0.3-0.1
			c0.1,0,0.2,0,0.3,0c-0.4,0.3-0.9,0.4-1.3,0.6c-0.4,0.1-0.8,0.3-1.2,0.4c-1.4,0.4-2.7,0.8-4.1,1.3c-0.5,0.2-1,0.4-1.5,0.6
			c-0.5,0.2-0.8,0.5-1.1,1c-0.2,0.5-0.6,1.1-0.8,1.6c-0.2,0.4-0.5,0.9-0.8,1.3c-0.2,0.3-0.4,0.6-0.7,0.9c-0.2,0.2-0.4,0.4-0.5,0.6
			c0,0.1-0.1,0.2-0.2,0.3c-0.2,0.1-0.3,0.3-0.4,0.4c0,0,0.1,0.1,0,0.1l-0.1,0c-0.1,0.1-0.3,0.2-0.4,0.3l-0.9,1.1
			c-0.1,0.1-0.2,0.3-0.2,0.4c-0.1,0.2-0.2,0.3-0.4,0.4c-0.1,0.1-0.3,0.1-0.3,0.2c-0.1,0.1-0.1,0.2,0,0.2c-0.4,0.6-1,1.1-1.6,1.5
			l0-0.2c-0.1,0-0.2,0.1-0.3,0.2l0.3,0c-0.2,0.2-0.3,0.3-0.5,0.4c-1.3,1.1-2.8,2.1-4.5,2.8c-0.2,0.1-0.5,0.2-0.7,0.3
			c-0.3,0.1-0.5,0.1-0.8-0.1l-0.3-0.2c-0.2-0.1-0.3-0.2-0.4-0.4c-0.1-0.4-0.3-0.8-0.3-1.2c0-0.2,0-0.4,0-0.6
			c0.2-0.6,0.4-1.3,0.9-1.8c0.1-0.1,0.2-0.3,0.3-0.4c0.5-0.6,1-1.2,1.5-1.8c0.1-0.1,0.2-0.3,0.3-0.4c0.3-0.2,0.5-0.5,0.8-0.8
			c0.1-0.1,0.2-0.2,0.3-0.3c0.3-0.2,0.5-0.4,0.7-0.6c0.4-0.4,0.8-0.8,1.3-1.2c0.3-0.3,0.7-0.5,1-0.8c1-0.8,2-1.4,3-2.1
			c0.6-0.4,1.2-0.8,1.9-1.2c0,0,0.1,0,0.1-0.1c0.6-0.4,1.2-0.7,1.9-1c0.1,0,0.2-0.1,0.2-0.1c0.2-0.1,0.2-0.2,0.2-0.4
			c0-0.2-0.2-0.4-0.4-0.3c-0.1,0-0.3,0.1-0.4,0.1c-0.8,0.4-1.7,0.6-2.5,0.9c-0.9,0.3-1.8,0.6-2.7,0.7c-0.4,0.1-0.9,0.1-1.3,0.1
			c-0.3,0-0.6-0.2-0.7-0.5c-0.1-0.3-0.2-0.5-0.1-0.8c0.1-0.7,1.5-2.7,2-3.2l0.1-0.1c0.2-0.1,0.3-0.1,0.4,0.1c0.1,0.2,0.1,0.4,0,0.6
			c-0.1,0.2,0.3,0.2-0.8,1.8c0.2,0.1,0,0.3,0.2,0.3c0.2,0.1,0.3,0,0.5,0c0.4-0.1,0.4-0.1,0.9-0.2c0.2-0.1,0.4-0.1,0.6-0.2
			c0.4-0.1,0.8-0.2,1.1-0.3c0.6-0.2,1.2-0.5,1.8-0.6l1.1-0.4c0.2,0,0.3-0.1,0.5-0.1c0.2,0,0.3,0.1,0.4,0.3s0.2,0.4,0.2,0.6l0.1,0.8
			c0,0.3,0.1,0.3,0.4,0.2c0.2-0.1,0.4-0.1,0.6-0.2c0.5-0.2,0.9-0.4,1.5-0.5l1.2-0.4c0.5-0.2,1-0.4,1.5-0.5c0.1,0,0.1,0,0.2-0.1
			c0.4-0.2,0.9-0.3,1.3-0.4c0.3,0,0.6-0.1,0.9-0.2c0.3-0.1,0.7-0.2,1-0.3c0.2-0.1,0.3,0,0.3,0.2c0,0.2,0,0.3,0.1,0.5
			C279.2,112.8,279.2,113.1,279,113.2z M256.5,129.1l0.3-0.2c0.5-0.2,0.9-0.4,1.4-0.7c0.3-0.2,0.6-0.4,0.8-0.7
			c0.5-0.2,0.8-0.5,1.2-0.8c0.1,0,0.2-0.1,0.3-0.3c-0.1,0-0.3,0.1-0.3,0.3c-0.1,0.1-0.3,0.1-0.4,0.2c-0.2,0.2-0.5,0.3-0.7,0.4
			l-0.4,0.2c-0.7,0.4-1.5,0.8-2.3,1.1l-0.2,0.1c-0.1,0-0.1,0.1-0.1,0.1C256.3,129.1,256.3,129.1,256.5,129.1z M267.6,118
			c-0.1,0-0.1,0-0.2,0c-0.2,0.1-0.4,0.3-0.7,0.4c-0.3,0.2-0.7,0.4-1,0.6c-0.4,0.3-0.8,0.5-1.1,0.8c0,0-0.1,0-0.1,0.1
			c-0.5,0.2-0.9,0.5-1.2,0.9c-0.1,0.1-0.2,0.1-0.2,0.2c-0.5,0.4-1,0.6-1.4,1.1c-0.2,0.2-0.4,0.3-0.6,0.2c-0.1,0.1-0.2,0.1-0.2,0.2
			c-0.2,0.2-0.5,0.3-0.6,0.5c-0.2,0.3-0.4,0.4-0.6,0.6c-0.2,0.1-0.3,0.2-0.3,0.4c-0.3,0.2-0.6,0.5-0.9,0.9c-0.1,0.1-0.2,0.2-0.2,0.4
			c-0.1,0.3-0.3,0.5-0.6,0.8c-0.1,0.1-0.1,0.1-0.2,0c-0.2,0.3-0.5,0.5-0.6,0.9c0,0.1-0.1,0.2-0.1,0.3l-0.3,0.3
			c-0.1,0.1-0.2,0.2-0.1,0.3c0.1,0.2-0.1,0.2-0.2,0.3c0,0.1,0.1,0.1,0.2,0.1c0.1,0.1,0.3,0.1,0.4,0c0.2-0.1,0.4-0.2,0.6-0.3
			c0.4-0.1,0.7-0.3,1-0.5c0.2-0.2,0.4-0.3,0.7-0.4c0.1,0,0.3-0.1,0.3-0.2l1.4-1.2c0.6-0.5,1.2-1,1.7-1.5c0.1-0.1,0.2-0.1,0.3-0.2
			c0.3-0.2,0.5-0.4,0.7-0.7c0.2-0.3,0.4-0.5,0.6-0.7c0.5-0.6,1.1-1.1,1.6-1.7c0.7-0.7,1.2-1.5,1.7-2.3c0.1-0.1,0.1-0.2,0.2-0.3
			C267.6,118.1,267.7,118,267.6,118z M260.9,127.4c-0.2,0-0.3,0-0.5,0.2c-0.1,0.1-0.2,0.2-0.3,0.3c-1,0.7-2.2,1.3-3.4,1.8
			c-0.1,0-0.2,0.1-0.3,0.2c0,0,0,0,0,0.1c0,0,0,0,0.1,0c0,0,0.1,0,0.1,0c0.3,0,0.4-0.1,0.7-0.2c0.8-0.3,1.6-0.8,2.3-1.2l0.2-0.1
			c0.1-0.2,0.3-0.3,0.5-0.3C260.5,127.9,260.8,127.7,260.9,127.4z M258.9,124.4C258.9,124.4,259,124.4,258.9,124.4L258.9,124.4
			C258.9,124.5,258.9,124.5,258.9,124.4C258.9,124.5,258.9,124.4,258.9,124.4z M259,124.3C259,124.3,259.1,124.3,259,124.3
			L259,124.3L259,124.3z M259.3,123.9l0.2,0C259.4,123.9,259.3,124,259.3,123.9z M261,126.2c-0.2,0-0.3,0.2-0.3,0.3
			C260.8,126.5,260.9,126.3,261,126.2z M261.2,127.1L261.2,127.1c-0.1,0.1-0.2,0.2-0.2,0.2C261.1,127.3,261.1,127.3,261.2,127.1
			C261.2,127.2,261.3,127.2,261.2,127.1z M261.5,125.7c-0.2,0.1-0.3,0.2-0.3,0.3c-0.1,0-0.1,0.1-0.2,0.1c0.1,0,0.1-0.1,0.2-0.1
			C261.3,125.9,261.4,125.9,261.5,125.7z M262.6,115.9C262.6,115.9,262.6,115.8,262.6,115.9c-0.2-0.1-0.3-0.1-0.4-0.1l-0.2,0
			c-0.1,0-0.1,0-0.2,0.1c0,0,0.1,0.1,0.2,0.1C262.2,116,262.4,116,262.6,115.9C262.6,116,262.7,115.9,262.6,115.9z M262,115.1
			c0,0.1,0,0.2,0.1,0.2c0.1,0,0.2-0.1,0.2-0.2c0-0.1-0.1-0.1-0.2-0.1C262,114.9,262,115,262,115.1z M264.1,114.9
			c0.4-0.2,0.9-0.2,1.3-0.5c-0.2,0-0.3,0-0.5,0.1c-0.5,0.1-0.9,0.3-1.4,0.4c-0.1,0-0.2,0-0.3,0.1c0.1,0.1,0.2,0,0.3,0
			C263.7,115,263.9,114.9,264.1,114.9z M266.1,122.7L266.1,122.7c0,0.1-0.1,0.1-0.2,0.2C266,122.8,266,122.8,266.1,122.7z
			 M266.2,114.1L266.2,114.1c-0.2,0-0.3,0-0.3,0.1C266,114.2,266.1,114.2,266.2,114.1C266.2,114.1,266.2,114.1,266.2,114.1z
			 M269.1,113.2C269.1,113.2,269,113.2,269.1,113.2c-0.1,0-0.1,0-0.1,0.1C269,113.2,269,113.2,269.1,113.2
			C269.1,113.2,269.1,113.2,269.1,113.2z M273.4,114.1c0,0-0.1,0-0.1,0c0,0-0.1,0-0.1,0.1C273.2,114.2,273.2,114.2,273.4,114.1
			C273.3,114.2,273.4,114.2,273.4,114.1z M275.8,113.4c-0.3,0-0.5,0.1-0.7,0.2C275.6,113.5,275.6,113.5,275.8,113.4z M278.4,112.7
			L278.4,112.7c-0.3,0-0.5,0-0.7,0c-0.1,0-0.1,0-0.2,0.1c-0.1,0-0.1,0.1-0.1,0.1c0,0,0,0.1,0.1,0.1h0.1
			C277.8,112.9,278.1,112.9,278.4,112.7C278.4,112.7,278.4,112.7,278.4,112.7z"/>
	</g>
</g>
</svg>
